<svg width="284" height="217" viewBox="0 0 284 217" fill="none" xmlns="http://www.w3.org/2000/svg">
<mask id="mask0_12_1799" style="mask-type:luminance" maskUnits="userSpaceOnUse" x="0" y="0" width="284" height="217">
<rect width="284" height="217" fill="white"/>
</mask>
<g mask="url(#mask0_12_1799)">
<ellipse cx="144.648" cy="108.38" rx="119.45" ry="108.38" fill="#F1F0FF"/>
<rect x="137.695" y="61.1299" width="73.2461" height="102.912" fill="white"/>
<path d="M123.015 123.943H198.116" stroke="black"/>
<path d="M123.015 130.673H198.116" stroke="black"/>
<path d="M123.015 137.403H198.116" stroke="black"/>
<path d="M123.015 144.132H198.116" stroke="black"/>
<ellipse cx="174.318" cy="91.1339" rx="19.1617" ry="17.3859" fill="#F2F2F2"/>
<rect opacity="0.7" x="198.115" y="97.7246" width="30.2873" height="25.5178" fill="#98B9F2"/>
<path d="M206.028 112.837L212.307 110.377V111.344L207.172 113.283L212.307 115.227V116.194L206.028 113.729V112.837ZM217.866 108.202H218.683L216.18 116.092H215.363L217.866 108.202ZM227.916 113.739L221.637 116.194V115.227L226.766 113.283L221.637 111.344V110.377L227.916 112.837V113.739Z" fill="white"/>
<rect x="11.1357" y="10.5156" width="163.491" height="97.5842" stroke="black"/>
<path d="M11.1357 15.7035H174.627" stroke="black"/>
<rect x="23.0342" y="24.3955" width="49.1402" height="44.586" stroke="black"/>
<path d="M81.6006 28.3216H156.702" stroke="black"/>
<path d="M81.6006 35.0521H156.702" stroke="black"/>
<path d="M81.6006 41.7816H156.702" stroke="black"/>
<path d="M81.6006 48.5111H156.702" stroke="black"/>
<path opacity="0.44" fill-rule="evenodd" clip-rule="evenodd" d="M47.6049 36.1729L34.2227 57.2017H60.9872L47.6049 36.1729Z" fill="#918EF4"/>
<ellipse cx="14.6904" cy="13.1787" rx="1.39061" ry="1.26173" fill="#AB8DE5"/>
<ellipse cx="19.4805" cy="13.1787" rx="1.39061" ry="1.26173" fill="#73E5E2"/>
<ellipse cx="24.2705" cy="13.1787" rx="1.39061" ry="1.26173" fill="#50B89D"/>
<path fill-rule="evenodd" clip-rule="evenodd" d="M83.1462 90.0825L87.7822 86.3672H83.0537L83.1462 90.0825Z" fill="#AB8DE5"/>
<path fill-rule="evenodd" clip-rule="evenodd" d="M78.5098 79.6367C78.5098 77.6622 79.2792 75.9768 80.818 74.5806C82.3568 73.1844 84.2143 72.4863 86.3906 72.4863H106.479C108.656 72.4863 110.513 73.1844 112.052 74.5806C113.591 75.9768 114.36 77.6622 114.36 79.6367C114.36 81.6113 113.591 83.2966 112.052 84.6928C110.513 86.0891 108.656 86.7872 106.479 86.7872H86.3906C84.2143 86.7872 82.3568 86.0891 80.818 84.6928C79.2792 83.2966 78.5098 81.6113 78.5098 79.6367Z" fill="#AB8DE5"/>
<ellipse cx="91.6455" cy="79.6377" rx="1.39061" ry="1.26173" fill="white"/>
<ellipse cx="96.4355" cy="79.6377" rx="1.39061" ry="1.26173" fill="white"/>
<ellipse cx="101.226" cy="79.6377" rx="1.39061" ry="1.26173" fill="white"/>
<path fill-rule="evenodd" clip-rule="evenodd" d="M229.949 48.02L225.312 44.3047H230.041L229.949 48.02Z" fill="#98B9F2"/>
<path fill-rule="evenodd" clip-rule="evenodd" d="M234.584 37.5752C234.584 39.5498 233.814 41.2351 232.276 42.6313C230.737 44.0275 228.879 44.7256 226.703 44.7256H206.614C204.438 44.7256 202.58 44.0275 201.042 42.6313C199.503 41.2351 198.733 39.5498 198.733 37.5752C198.733 35.6007 199.503 33.9153 201.042 32.5191C202.58 31.1229 204.438 30.4248 206.614 30.4248L226.703 30.4248C228.879 30.4248 230.737 31.1229 232.276 32.5191C233.814 33.9153 234.584 35.6007 234.584 37.5752Z" fill="#98B9F2"/>
<ellipse cx="221.449" cy="37.5752" rx="1.39061" ry="1.26173" fill="white"/>
<ellipse cx="216.658" cy="37.5752" rx="1.39061" ry="1.26173" fill="white"/>
<ellipse cx="211.868" cy="37.5752" rx="1.39061" ry="1.26173" fill="white"/>
<ellipse cx="227.476" cy="11.918" rx="1.39061" ry="1.26173" fill="#918EF4"/>
<ellipse cx="230.412" cy="17.1055" rx="1.39061" ry="1.26173" fill="#918EF4"/>
<ellipse cx="198.424" cy="68.2815" rx="2.16361" ry="1.9631" fill="#918EF4"/>
<ellipse cx="211.096" cy="75.0109" rx="2.16361" ry="1.9631" fill="#918EF4"/>
<ellipse cx="16.3902" cy="77.2541" rx="2.16362" ry="1.9631" fill="#F98B67"/>
<path fill-rule="evenodd" clip-rule="evenodd" d="M203.431 166.916V166.636L202.689 165.795L200.974 163.905L199.15 161.903C199.15 161.903 197.395 160.801 196.944 160.61C195.334 159.855 193.557 159.439 191.746 159.395C190.556 159.395 186.108 159.557 186.1 160.236C186.1 161.242 192.329 165.053 196.895 166.904C198.9 166.916 203.431 166.916 203.431 166.916Z" fill="#1F161E"/>
<path fill-rule="evenodd" clip-rule="evenodd" d="M202.488 166.917C196.149 162.491 183.209 138.356 186.528 129.411C193.593 132.678 201.344 143.942 205 153.454C205.197 154.073 205.355 154.702 205.473 155.338L206.957 161.507L207.315 166.928L202.488 166.917Z" fill="#6F9CEB"/>
<path fill-rule="evenodd" clip-rule="evenodd" d="M206.815 166.917C204.676 165.341 203.994 160.675 203.975 158.934C203.941 155.684 204.491 153.289 207.554 149.714C210.617 146.139 209.801 140.208 213.868 136.206C217.935 132.205 220.63 131.089 225.457 131.089C230.283 131.089 231.82 138.189 231.792 139.975C231.736 147.181 226.733 148.202 223.679 151.64C221.464 154.136 221.291 156.177 220.62 157.344C217.022 163.631 214.099 165.995 211.935 166.918" fill="#918EF4"/>
<path d="M207.995 166.395C208.057 154.105 222.33 135.642 225.382 132.877" stroke="white" stroke-width="0.4" stroke-linecap="round" stroke-linejoin="round"/>
<path d="M208.765 160.809C207.185 159.247 205.75 154.82 205.965 153.67" stroke="white" stroke-width="0.4" stroke-linecap="round" stroke-linejoin="round"/>
<path d="M204.72 165.856C202.482 162.258 191.866 144.715 187.907 131.794" stroke="white" stroke-width="0.4" stroke-linecap="round" stroke-linejoin="round"/>
<path fill-rule="evenodd" clip-rule="evenodd" d="M211.949 166.916H218.6L213.04 185.704H198.162L192.688 166.916H211.949" fill="#B37361"/>
<path d="M188.274 160.615C191.517 160.817 195.596 160.952 198.474 162.732" stroke="white" stroke-width="0.4" stroke-linecap="round" stroke-linejoin="round"/>
<path fill-rule="evenodd" clip-rule="evenodd" d="M239.666 90.0127C238.885 93.3974 233.204 135.381 235.061 145.409C236.918 155.436 267.203 176.447 268.529 176.815C270.074 175.786 272.347 172.412 272.347 172.412C272.347 172.412 250.142 149.057 249.718 148.12C249.295 147.184 254.583 93.0977 254.583 93.0977L239.666 90.0127Z" fill="#7472C1"/>
<path fill-rule="evenodd" clip-rule="evenodd" d="M275.83 97.6542L253.173 181.501H245.543L253.276 94.0312L275.83 97.6542Z" fill="#AB8DE5"/>
<path fill-rule="evenodd" clip-rule="evenodd" d="M259.74 49.6475C262.868 49.6475 279.183 50.127 282.131 55.3368C285.079 60.5466 282.302 84.6313 280.469 85.5624C279.48 86.0644 279.211 85.5764 278.924 86.5956C278.636 87.6149 275.833 97.6522 275.833 97.6522C274.052 97.6972 248.101 94.1496 239.673 90.0028C239.723 88.848 240.13 85.8529 240.13 85.6226C239.012 86.0377 237.658 86.1246 237.287 85.6226C233.999 81.105 238.9 57.5533 242.417 52.8139C243.912 50.7834 254.717 49.6614 259.74 49.6475Z" fill="#6F9CEB"/>
<path fill-rule="evenodd" clip-rule="evenodd" d="M270.481 86.2133C271.248 86.2133 277.846 90.4196 277.28 92.4861C277.744 90.8263 279.203 85.6973 279.203 85.6973C278.576 85.8067 271.044 86.2218 270.481 86.2133Z" fill="#1F161E"/>
<path fill-rule="evenodd" clip-rule="evenodd" d="M263.778 52.3965C263.778 53.3081 255.832 53.3081 255.832 52.3965V43.1426H263.778V52.3965Z" fill="#F8CDBA"/>
<path fill-rule="evenodd" clip-rule="evenodd" d="M259.219 45.3324C259.837 45.3324 263.777 46.9126 263.777 47.7944V43.1426C262.794 43.1426 259.219 45.3324 259.219 45.3324Z" fill="#1F161E"/>
<ellipse cx="258.131" cy="38.9945" rx="7.7294" ry="7.01306" fill="#F8CDBA"/>
<path fill-rule="evenodd" clip-rule="evenodd" d="M255.517 28.7422C251.549 28.7422 249.076 31.0025 249.076 33.8991C249.076 36.3077 249.719 37.6709 250.476 38.0155C250.955 35.6768 251.997 34.5944 252.859 34.1289C253.529 34.5944 254.676 35.7218 256.208 36.0695C257.74 36.4171 261.731 36.3496 264.954 38.4756C266.008 37.6065 267.059 36.4761 267.059 35.1444C267.059 33.8128 266.41 32.1414 262.593 31.1763C260.072 30.5394 259.72 28.7422 255.517 28.7422Z" fill="#1F161E"/>
<ellipse cx="250.908" cy="40.4392" rx="1.35377" ry="0.639374" fill="#FA9E9F"/>
<ellipse cx="259.423" cy="40.4392" rx="1.35377" ry="0.639374" fill="#FA9E9F"/>
<path d="M254.216 39.1123C253.963 39.4405 252.671 40.8171 254.034 41.3726" stroke="#1F161E" stroke-linecap="round"/>
<path d="M256.762 42.9796C257.321 42.8547 257.809 42.5433 258.128 42.1074" stroke="#1F161E" stroke-linecap="round"/>
<ellipse cx="265.276" cy="39.8026" rx="1.78649" ry="1.62092" fill="#F8CDBA"/>
<path d="M270.66 63.4463C270.521 64.9943 269.977 72.6437 270.181 73.6507C267.588 74.4694 243.847 84.6848 239.739 85.8061" stroke="#1F161E" stroke-linecap="round"/>
<path d="M243.086 61.0322C242.539 62.765 240.698 70.6307 241.992 74.2816" stroke="#1F161E" stroke-linecap="round"/>
<path d="M249.147 82.2285C250.384 83.0186 262.233 87.775 278.616 85.9803" stroke="#1F161E" stroke-linecap="round"/>
<path fill-rule="evenodd" clip-rule="evenodd" d="M248.013 74.285C248.808 74.3999 246.217 72.5225 244.75 73.222C243.282 73.9216 241.304 77.0808 241.709 77.8125C241.819 78.0817 242.058 78.2909 242.358 78.3814C242.659 78.4719 242.988 78.4339 243.254 78.2781C243.652 78.0453 246.628 74.0826 248.013 74.285Z" fill="#F8CDBA"/>
<path fill-rule="evenodd" clip-rule="evenodd" d="M272.094 172.758C272.518 173.038 276.273 175.343 276.304 176.796C276.334 178.248 272.805 183.063 272.094 183.201C271.384 183.338 270.876 182.794 270.876 181.821C270.876 180.848 272.216 179.143 272.039 178.386C271.861 177.629 270.126 176.243 269.235 176.218" fill="#EBEBEB" fill-opacity="0.25098"/>
<path fill-rule="evenodd" clip-rule="evenodd" d="M252.448 181.501C252.448 182.17 252.875 186.358 252.022 186.747C251.168 187.137 241.755 187.367 241.328 186.98C240.901 186.593 240.642 185.777 241.019 185.544C241.396 185.312 245.038 184.65 245.531 184.342C246.258 183.551 246.594 182.523 246.459 181.501" fill="#EBEBEB" fill-opacity="0.25098"/>
<rect x="8.03906" y="150.397" width="59.7654" height="27.5059" fill="#B37361"/>
<path fill-rule="evenodd" clip-rule="evenodd" d="M97.248 137.506C97.5079 138.908 101.915 170.962 102.629 171.492C103.343 172.022 110.924 173.197 111.573 172.316C111.703 170.914 111.882 148.559 112.284 146.56" fill="#1F161E"/>
<path fill-rule="evenodd" clip-rule="evenodd" d="M11.9792 130.818C8.9227 129.452 15.2957 156.524 32.068 156.524C48.8404 156.524 77.0726 133.342 81.6437 133.342C91.7343 133.342 115.621 151.317 117.494 151.317C118.928 150.016 121.796 147.739 121.796 146.83C121.796 145.922 98.9258 111.778 81.8132 111.778C75.1783 111.786 18.8807 133.911 11.9792 130.818Z" fill="#7472C1"/>
<path fill-rule="evenodd" clip-rule="evenodd" d="M21.4189 131.279C24.7721 130.59 28.9446 128.803 32.6375 126.978C22.5898 129.956 14.3566 131.885 11.98 130.819C10.3603 130.096 11.3865 137.342 15.1953 144.321C14.5047 142.971 13.522 132.915 21.4189 131.279Z" fill="#1F161E"/>
<path fill-rule="evenodd" clip-rule="evenodd" d="M28.8099 83.7873C31.4525 83.8517 45.2086 83.4834 48.9791 86.7429C51.7758 89.16 60.4731 109.947 61.8141 117.246C55.973 119.941 13.8394 138.244 0.803485 130.196C0.516119 123.943 1.85448 99.0843 10.3823 86.0476C13.4998 84.1629 26.2699 83.7284 28.8099 83.7873Z" fill="white"/>
<path fill-rule="evenodd" clip-rule="evenodd" d="M34.17 77.8389H26.1318V85.6736C26.1318 87.6367 34.17 87.6185 34.17 85.6736V77.8389Z" fill="#F8CDBA"/>
<path fill-rule="evenodd" clip-rule="evenodd" d="M26.1345 82.5696C26.1345 81.7005 28.7891 79.5162 30.4303 79.5915C30.4705 78.624 26.6791 77.2334 26.6791 77.2334L26.1318 78.5705L26.1345 82.5696Z" fill="#1F161E"/>
<path fill-rule="evenodd" clip-rule="evenodd" d="M42.585 77.8398C42.7655 77.0808 42.8567 76.3066 42.8569 75.5302C42.8569 69.7479 37.8779 65.0596 31.7307 65.0596C25.5835 65.0596 20.6045 69.7479 20.6045 75.5302C20.6045 76.3037 20.6954 77.078 20.8758 77.8369L42.585 77.8398Z" fill="#1F161E"/>
<path fill-rule="evenodd" clip-rule="evenodd" d="M39.6526 70.7816C38.2895 70.5937 36.9297 69.6207 35.9812 68.9844C30.5728 72.5793 27.1083 72.6249 26.7339 72.6249C26.3594 72.6249 24.8362 74.6105 24.1349 74.8348L24.0732 74.8014C24.6321 77.6593 26.9238 79.9849 29.9918 80.8075C33.0597 81.63 36.3765 80.8081 38.5577 78.6848C40.7389 76.5615 41.4095 73.5018 40.2897 70.7828C40.0784 70.8066 39.8646 70.8066 39.6533 70.7828L39.6526 70.7816Z" fill="#F8CDBA"/>
<ellipse cx="25.7051" cy="63.3873" rx="3.28227" ry="2.97807" fill="#1F161E"/>
<path d="M27.1661 72.4668C26.4276 72.4963 25.8457 73.0481 25.8457 73.7188C25.8457 74.3895 26.4276 74.9413 27.1661 74.9708" stroke="#1F161E" stroke-linecap="round"/>
<path d="M37.6875 72.626C38.0894 73.1165 39.1337 73.9777 37.6875 74.8887" stroke="#1F161E" stroke-linecap="round"/>
<path d="M33.3011 75.5459C33.2642 76.1885 33.6833 76.7809 34.3427 77.0179" stroke="#1F161E" stroke-linecap="round"/>
<ellipse cx="30.6093" cy="75.0325" rx="1.27339" ry="0.599869" fill="#FA9E9F"/>
<ellipse cx="40.0761" cy="75.0325" rx="1.27339" ry="0.599869" fill="#FA9E9F"/>
<path fill-rule="evenodd" clip-rule="evenodd" d="M48.6895 105.455L57.2783 103.449C58.1035 104.722 62.1213 117.232 62.1213 117.232L48.8636 122.302C49.0358 119.933 49.5576 109.081 48.6895 105.455Z" fill="#F8CDBA"/>
<path d="M18.5751 103.494C18.2817 105.593 17.8169 107.669 17.1846 109.705" stroke="#1F161E" stroke-linecap="round"/>
<path d="M48.6893 105.455C48.4823 103.972 47.2705 95.6131 45.2061 91.2129" stroke="#1F161E" stroke-linecap="round"/>
<path fill-rule="evenodd" clip-rule="evenodd" d="M48.6895 105.455L57.2783 103.449C58.1035 104.722 62.1213 117.232 62.1213 117.232L48.8636 122.302C49.0358 119.933 49.5576 109.081 48.6895 105.455Z" fill="#F8CDBA"/>
<path fill-rule="evenodd" clip-rule="evenodd" d="M117.751 150.654C117.943 150.934 120.501 153.784 121.407 153.815C122.313 153.846 127.811 150.466 127.57 149.743C127.329 149.019 123.879 149.49 123.286 149.235C122.411 148.735 121.679 148.054 121.15 147.247" fill="#1F161E"/>
<path fill-rule="evenodd" clip-rule="evenodd" d="M104.229 171.789C104.162 172.101 103.815 175.772 104.442 176.366C105.069 176.96 111.61 177.992 111.993 177.317C112.376 176.641 109.52 174.809 109.301 174.255C109.058 173.344 109.058 172.395 109.301 171.484" fill="#1F161E"/>
<path fill-rule="evenodd" clip-rule="evenodd" d="M93.9718 118.017H64.8682L71.7971 101.357H100.901L93.9718 118.017Z" fill="#969696"/>
<rect x="40.6172" y="117.39" width="29.1037" height="0.627827" fill="#969696"/>
<path fill-rule="evenodd" clip-rule="evenodd" d="M17.1844 109.708C16.6251 111.604 13.9082 119.736 15.0148 121.138C16.1213 122.539 43.8311 119.363 51.2456 117.268C53.1339 116.707 54.5339 115.238 55.3712 115.047C57.5985 114.705 59.7523 115.94 60.3656 117.913C57.4076 119.214 14.6564 139.017 0.80522 130.204C-1.81256 128.502 2.77994 107.751 2.99027 106.705C5.32872 106.96 17.1844 109.708 17.1844 109.708Z" fill="#F8CDBA"/>
<path d="M49.085 117.774C49.9196 117.592 50.6491 117.418 51.2486 117.249C53.1369 116.688 54.5369 115.219 55.3742 115.029C57.6014 114.686 59.7552 115.922 60.3686 117.894" stroke="#1F161E" stroke-linecap="round"/>
</g>
</svg>
