<svg width="60" height="60" viewBox="0 0 60 60" fill="none" xmlns="http://www.w3.org/2000/svg">
<path fill-rule="evenodd" clip-rule="evenodd" d="M30 0C46.5685 0 60 13.4315 60 30V60H30C13.4315 60 0 46.5685 0 30C-3.8147e-06 13.4315 13.4315 0 30 0Z" fill="#918EF4"/>
<path fill-rule="evenodd" clip-rule="evenodd" d="M15.68 30.585V30.193C18.098 29.948 19.28 28.714 19.28 26.344V22.021C19.28 19.389 20.218 18.321 22.537 18.321H23.194V16H22.294C18.412 16 16.584 17.826 16.584 21.658V25.324C16.584 27.956 15.684 28.824 13 28.824V31.949C15.68 31.949 16.584 32.82 16.584 35.449V39.115C16.584 42.947 18.41 44.773 22.29 44.773H23.19V42.458H22.533C20.214 42.458 19.276 41.39 19.276 38.758V34.434C19.281 32.066 18.1 30.832 15.68 30.585ZM44.0003 30.193V30.585C41.5823 30.833 40.4003 32.067 40.4003 34.434V38.759C40.4003 41.391 39.4623 42.459 37.1433 42.459H36.4863V44.778H37.3863C41.2663 44.778 43.0923 42.952 43.0923 39.12V35.453C43.0923 32.821 43.9923 31.953 46.6763 31.953V28.826C43.9963 28.826 43.0923 27.955 43.0923 25.326V21.658C43.0933 17.826 41.2643 16 37.3873 16H36.4873V18.319H37.1443C39.4633 18.319 40.4013 19.387 40.4013 22.019V26.344C40.4013 28.711 41.5843 29.944 44.0013 30.193H44.0003Z" fill="white"/>
<path fill-rule="evenodd" clip-rule="evenodd" d="M30.5 27C32.433 27 34 28.567 34 30.5V34H30.5C28.567 34 27 32.433 27 30.5C27 28.567 28.567 27 30.5 27Z" fill="white"/>
</svg>
